<?xml version="1.0" encoding="UTF-8"?>
<!DOCTYPE svg PUBLIC "-//W3C//DTD SVG 1.1//EN" "http://www.w3.org/Graphics/SVG/1.1/DTD/svg11.dtd">
<!-- Creator: CorelDRAW -->
<svg xmlns="http://www.w3.org/2000/svg" xml:space="preserve" width="15mm" height="15mm" version="1.1" style="shape-rendering:geometricPrecision; text-rendering:geometricPrecision; image-rendering:optimizeQuality; fill-rule:evenodd; clip-rule:evenodd"
viewBox="0 0 1500 1500"
 xmlns:xlink="http://www.w3.org/1999/xlink"
 xmlns:xodm="http://www.corel.com/coreldraw/odm/2003">
 <defs>
  <style type="text/css">
   <![CDATA[
    .fil0 {fill:#3957AD}
   ]]>
  </style>
 </defs>
 <g id="Слой_x0020_1">
  <metadata id="CorelCorpID_0Corel-Layer"/>
  <path class="fil0" d="M466.86 710.02l292.01 -291.95 485.62 0c68.73,0 194.08,0 162.06,165.25l-54.64 281.04 -9.58 0c-1.75,-154.34 -48.1,-154.34 -221.76,-154.34l-653.71 0z"/>
  <path class="fil0" d="M20.59 1156.38l385.73 -385.67 688.46 0c117.46,0 275.36,0 231.45,225.93l-70.74 363.63 -15 0c-1.93,-203.89 -51,-203.89 -309.47,-203.89l-910.43 0z"/>
  <path class="fil0" d="M1425.63 484.78l47.24 -243.02c28.17,-144.63 -88.07,-154.23 -88.07,-154.23l-295.3 0 -269.96 270 450.66 0c92.84,0 146.06,0 147.91,127.25l7.52 0z"/>
 </g>
</svg>
