<svg width="9" height="9" viewBox="0 0 9 9" fill="none" xmlns="http://www.w3.org/2000/svg">
<g clip-path="url(#clip0_6_871)">
<path d="M0.808594 3.16406H1.59961V8.73633C1.59961 8.88207 1.71754 9 1.86328 9H7.13672C7.28246 9 7.40039 8.88207 7.40039 8.73633V3.16406H8.19141C8.33715 3.16406 8.45508 3.04613 8.45508 2.90039C8.45508 2.75465 8.33715 2.63672 8.19141 2.63672H0.808594C0.662854 2.63672 0.544922 2.75465 0.544922 2.90039C0.544922 3.04613 0.662854 3.16406 0.808594 3.16406ZM3.18164 7.94531C3.18164 8.09105 3.06371 8.20898 2.91797 8.20898C2.77223 8.20898 2.6543 8.09105 2.6543 7.94531V3.69141C2.6543 3.54567 2.77223 3.42773 2.91797 3.42773C3.06371 3.42773 3.18164 3.54567 3.18164 3.69141V7.94531ZM4.76367 7.94531C4.76367 8.09105 4.64574 8.20898 4.5 8.20898C4.35426 8.20898 4.23633 8.09105 4.23633 7.94531V3.69141C4.23633 3.54567 4.35426 3.42773 4.5 3.42773C4.64574 3.42773 4.76367 3.54567 4.76367 3.69141V7.94531ZM6.3457 7.94531C6.3457 8.09105 6.22777 8.20898 6.08203 8.20898C5.93629 8.20898 5.81836 8.09105 5.81836 7.94531V3.69141C5.81836 3.54567 5.93629 3.42773 6.08203 3.42773C6.22777 3.42773 6.3457 3.54567 6.3457 3.69141V7.94531Z" fill="#ACACAC"/>
<path d="M7.92773 1.31836C7.92773 1.17262 7.8098 1.05469 7.66406 1.05469H5.81836V0.263672C5.81836 0.117932 5.70043 0 5.55469 0H3.44531C3.29957 0 3.18164 0.117932 3.18164 0.263672V1.05469H1.33594C1.1902 1.05469 1.07227 1.17262 1.07227 1.31836V2.10938H7.92773V1.31836ZM3.70898 0.527344H5.29102V1.05469H3.70898V0.527344Z" fill="#ACACAC"/>
</g>
<defs>
<clipPath id="clip0_6_871">
<rect width="9" height="9" fill="white"/>
</clipPath>
</defs>
</svg>
