<svg width="8" height="8" viewBox="0 0 8 8" fill="none" xmlns="http://www.w3.org/2000/svg">
<g clip-path="url(#clip0_6_875)">
<path d="M6.316 0.252014C6.185 0.252014 6.05375 0.301264 5.95525 0.400014L5.39325 0.962014L7.03825 2.60651L7.59975 2.04451C7.79675 1.84751 7.79675 1.51976 7.59975 1.32276L6.67675 0.400014C6.57825 0.301264 6.447 0.252014 6.316 0.252014ZM5.0395 1.31551L0.972251 5.38301C0.945001 5.41026 0.924501 5.44377 0.911751 5.48076C0.729501 6.02751 0.403001 6.92052 0.261751 7.43152C0.211501 7.61402 0.374251 7.78402 0.558751 7.74152C1.16675 7.60102 1.9805 7.26752 2.51875 7.08827C2.55525 7.07627 2.589 7.05602 2.61675 7.02927L6.684 2.96051L5.0395 1.31551Z" fill="#ACACAC"/>
</g>
<defs>
<clipPath id="clip0_6_875">
<rect width="8" height="8" fill="white"/>
</clipPath>
</defs>
</svg>
