<svg width="16" height="16" viewBox="0 0 16 16" fill="none" xmlns="http://www.w3.org/2000/svg">
<g clip-path="url(#clip0_6_937)">
<path d="M15.9491 7.07856C15.9151 6.99721 15.8664 6.92321 15.8044 6.86121L13.8051 4.86187C13.5444 4.60187 13.1231 4.60187 12.8624 4.86187C12.6018 5.12253 12.6018 5.54453 12.8624 5.80453L13.7244 6.66653H10.0004C9.63176 6.66653 9.33376 6.96518 9.33376 7.33318C9.33376 7.70118 9.63176 7.99984 10.0004 7.99984H13.7244L12.8624 8.86184C12.6018 9.1225 12.6018 9.5445 12.8624 9.8045C12.9924 9.93515 13.1631 9.99984 13.3338 9.99984C13.5044 9.99984 13.6751 9.93518 13.8051 9.8045L15.8044 7.80515C15.8664 7.74381 15.9151 7.66981 15.9491 7.58781C16.0164 7.42521 16.0164 7.24121 15.9491 7.07856Z" fill="black" fill-opacity="0.7"/>
<path d="M11.3338 9.33334C10.9651 9.33334 10.6671 9.632 10.6671 10V13.3333H8.00044V2.66666C8.00044 2.37266 7.8071 2.11266 7.5251 2.028L5.20975 1.33334H10.6671V4.66669C10.6671 5.03469 10.9651 5.33334 11.3338 5.33334C11.7024 5.33334 12.0004 5.03469 12.0004 4.66669V0.666687C12.0004 0.298656 11.7024 0 11.3338 0H0.667099C0.643099 0 0.621755 0.01 0.598442 0.0126563C0.567099 0.016 0.538442 0.0213125 0.508443 0.0286562C0.438443 0.0466563 0.375099 0.074 0.315786 0.111313C0.30113 0.120656 0.28313 0.121312 0.26913 0.131969C0.263755 0.136 0.261755 0.143344 0.256411 0.147344C0.183755 0.204656 0.123099 0.274656 0.0790988 0.358C0.069755 0.376 0.067755 0.395344 0.0604425 0.414C0.0390988 0.464656 0.0157863 0.514 0.00778625 0.57C0.0044425 0.59 0.0104425 0.608656 0.00978625 0.628C0.00913 0.641344 0.000442505 0.653344 0.000442505 0.666656V14C0.000442505 14.318 0.225099 14.5913 0.536443 14.6533L7.2031 15.9867C7.24644 15.996 7.29044 16 7.33375 16C7.48641 16 7.63641 15.9474 7.75641 15.8487C7.91041 15.722 8.00041 15.5333 8.00041 15.3333V14.6667H11.3338C11.7024 14.6667 12.0004 14.368 12.0004 14V10C12.0004 9.632 11.7024 9.33334 11.3338 9.33334Z" fill="black" fill-opacity="0.7"/>
</g>
<defs>
<clipPath id="clip0_6_937">
<rect width="16" height="16" fill="white"/>
</clipPath>
</defs>
</svg>
