<svg width="31" height="31" viewBox="0 0 31 31" fill="none" xmlns="http://www.w3.org/2000/svg">
<path d="M30.4834 27.3842H24.2834H18.6H12.9166H7.23329H0.516647C0.230926 27.3842 0 27.6157 0 27.9009C0 28.186 0.230926 28.4175 0.516647 28.4175H30.4833C30.769 28.4175 30.9999 28.186 30.9999 27.9009C30.9999 27.6157 30.7691 27.3842 30.4834 27.3842Z" fill="#F7A600"/>
<path d="M28.9334 22.7342H10.85C10.5648 22.7342 10.3334 22.5027 10.3334 22.2175V15.5009C10.3334 15.2157 10.1019 14.9843 9.81671 14.9843H3.61671C3.33154 14.9843 3.10006 15.2157 3.10006 15.5009V17.0509C3.10006 17.2881 3.26124 17.4947 3.4912 17.552L5.16677 17.9711V22.7343H2.58336C2.29818 22.7343 2.06671 22.9657 2.06671 23.2509V24.8009C2.06671 25.0861 2.29818 25.3175 2.58336 25.3175H5.16671C5.16671 26.4573 6.09362 27.3842 7.23336 27.3842C8.37309 27.3842 9.3 26.4573 9.3 25.3175H10.85C10.85 26.4573 11.7769 27.3842 12.9166 27.3842C14.0564 27.3842 14.9833 26.4573 14.9833 25.3175H16.5333C16.5333 26.4573 17.4602 27.3842 18.5999 27.3842C19.7397 27.3842 20.6666 26.4573 20.6666 25.3175H22.2166C22.2166 26.4573 23.1435 27.3842 24.2832 27.3842C25.423 27.3842 26.3499 26.4573 26.3499 25.3175H28.9332C29.2184 25.3175 29.4499 25.0861 29.4499 24.8009V23.2509C29.45 22.9657 29.2185 22.7342 28.9334 22.7342Z" fill="#F7A600"/>
<path d="M27.3834 16.5342H24.8V15.5008C24.8 14.8219 24.3588 14.25 23.7496 14.0407C23.7812 13.9436 23.8142 13.847 23.8287 13.7406C23.9042 13.1815 23.7243 12.6401 23.3508 12.2464C23.5068 11.7163 23.4939 11.0472 23.1255 10.5166C22.9467 10.2592 22.5659 9.8816 21.8385 9.8041C21.9221 8.97225 21.5988 8.16679 20.9209 7.59226C20.0885 6.88756 18.955 6.68654 17.9345 7.01979C17.8389 6.78887 17.6989 6.60026 17.5145 6.45665C17.2918 6.28306 17.0226 6.18334 16.7002 6.15597C16.8231 5.3536 16.649 4.56359 16.1902 3.91053C15.5785 3.04047 14.5741 2.54913 13.4333 2.58425C12.2082 2.58425 10.9879 3.24766 10.3963 4.235C9.97165 4.9454 9.9091 5.75503 10.2087 6.55328C8.97547 7.58246 8.84632 8.96299 9.30303 9.94003C9.76857 10.9372 10.9372 11.7386 12.5653 11.4621C12.7776 11.8858 13.1796 12.2753 13.6952 12.5332C14.4082 12.8897 15.2152 12.9476 15.9753 12.713C16.0528 13.1971 16.2961 13.5459 16.5323 13.7799C17.4509 14.6908 19.1828 14.8003 20.5189 14.5172C20.8599 14.7848 21.3124 14.961 21.7821 15.0271C21.733 15.177 21.6999 15.3345 21.6999 15.5009V16.5343H19.0029C18.7255 15.9267 17.966 15.5009 17.0499 15.5009C16.1339 15.5009 15.3744 15.9266 15.0969 16.5343H11.8833C11.5981 16.5343 11.3666 16.7657 11.3666 17.0509V21.7009H27.3833C28.2668 21.7009 28.9333 20.5906 28.9333 19.1175C28.9333 17.6445 28.2669 16.5342 27.3834 16.5342Z" fill="#F7A600"/>
</svg>
