<svg width="22" height="22" viewBox="0 0 22 22" fill="none" xmlns="http://www.w3.org/2000/svg">
<path d="M21.6275 13.0167H18.5167C17.9091 13.0167 17.4167 12.5242 17.4167 11.9167V9.625C17.4167 9.42251 17.5808 9.25834 17.7833 9.25834C18.5082 9.25834 19.1722 9.16635 19.8014 9.7955L21.4628 11.457C21.864 11.8581 21.9679 12.2916 21.9934 12.6257C22.0095 12.8371 21.8396 13.0167 21.6275 13.0167ZM21.6333 13.75H18.5167C17.5042 13.75 16.6833 12.9292 16.6833 11.9167V9.625C16.6833 9.42251 16.5192 9.25834 16.3167 9.25834C16.1142 9.25834 15.95 9.42242 15.95 9.625V14.8601C15.95 15.1604 16.2957 15.3239 16.5316 15.138C18.3866 13.6758 21.1321 15.0035 21.1292 17.3745C21.1289 17.5741 21.2868 17.7375 21.4864 17.7375H21.6333C21.8358 17.7375 22 17.5733 22 17.3708V14.1167C22 13.9142 21.8358 13.75 21.6333 13.75ZM13.75 2.42917H10.45C10.2475 2.42917 10.0833 2.59334 10.0833 2.79584V6.25992C10.0833 7.10449 9.17304 7.63116 8.44204 7.21738L7.96904 6.95017C7.74675 6.82459 7.46992 6.82413 7.24763 6.95017L6.77462 7.21738C6.04184 7.63208 5.13333 7.10289 5.13333 6.25992V2.79584C5.13333 2.59334 4.96916 2.42917 4.76667 2.42917H1.46667C0.657708 2.42917 0 3.08734 0 3.89584V16.6375C0 17.245 0.492479 17.7375 1.1 17.7375H1.24144C1.44105 17.7375 1.60426 17.5742 1.60417 17.3745C1.6027 15.0288 4.23115 13.6291 6.17068 14.9358C6.29191 15.0174 6.4498 15.0174 6.57103 14.9358C8.50809 13.6307 11.1404 15.0275 11.1375 17.3744C11.1373 17.574 11.2953 17.7375 11.495 17.7375H14.8592C15.0566 17.7375 15.2167 17.5775 15.2167 17.38V3.89584C15.2167 3.08734 14.559 2.42917 13.75 2.42917ZM6.23333 2.42917C6.03084 2.42917 5.86667 2.59334 5.86667 2.79584V6.25992C5.86667 6.53996 6.16857 6.71756 6.41392 6.57892L6.88646 6.31171C7.33196 6.06009 7.88471 6.06009 8.33021 6.31171L8.80275 6.57892C9.04755 6.71724 9.35 6.5406 9.35 6.25992V2.79584C9.35 2.59334 9.18583 2.42917 8.98333 2.42917H6.23333ZM8.20417 15.1708C7.43967 15.1708 6.765 15.5627 6.37083 16.1563C5.97667 15.5627 5.302 15.1708 4.5375 15.1708C3.32429 15.1708 2.3375 16.1576 2.3375 17.3708C2.3375 18.584 3.32429 19.5708 4.5375 19.5708C5.302 19.5708 5.97621 19.179 6.37083 18.5859C6.76546 19.179 7.43967 19.5708 8.20417 19.5708C9.41738 19.5708 10.4042 18.584 10.4042 17.3708C10.4042 16.1576 9.41738 15.1708 8.20417 15.1708ZM18.2875 15.2625C17.1252 15.2625 16.1792 16.2085 16.1792 17.3708C16.1792 18.5332 17.1252 19.4792 18.2875 19.4792C19.4498 19.4792 20.3958 18.5332 20.3958 17.3708C20.3958 16.2085 19.4498 15.2625 18.2875 15.2625Z" fill="#061022"/>
</svg>
