<svg width="35" height="35" viewBox="0 0 35 35" fill="none" xmlns="http://www.w3.org/2000/svg">
<path d="M0.582764 17.5H34.4166C34.6359 17.5 34.8366 17.6231 34.9363 17.8185C35.0361 18.0139 35.0174 18.249 34.8879 18.4264L30.2212 24.8431C30.1115 24.9942 29.9371 25.0835 29.7505 25.0835C26.9598 25.0835 5.37196 25.0835 3.4954 25.0835C3.40728 25.0835 3.32156 25.0631 3.24281 25.024C0.386776 23.5984 -7.62939e-06 20.7183 -7.62939e-06 18.0881C-0.000553131 17.7642 0.259624 17.5 0.582764 17.5ZM27.4165 19.5417C27.4165 19.7027 27.5471 19.8334 27.7082 19.8334H28.2915C28.4525 19.8334 28.5832 19.7028 28.5832 19.5417V18.9584C28.5832 18.7974 28.4526 18.6667 28.2915 18.6667H27.7082C27.5472 18.6667 27.4165 18.7973 27.4165 18.9584V19.5417ZM25.0831 19.5417C25.0831 19.7027 25.2138 19.8334 25.3748 19.8334H25.9582C26.1192 19.8334 26.2499 19.7028 26.2499 19.5417V18.9584C26.2499 18.7974 26.1192 18.6667 25.9582 18.6667H25.3748C25.2139 18.6667 25.0831 18.7973 25.0831 18.9584V19.5417ZM22.7498 19.5417C22.7498 19.7027 22.8804 19.8334 23.0415 19.8334H23.6248C23.7858 19.8334 23.9165 19.7028 23.9165 19.5417V18.9584C23.9165 18.7974 23.7859 18.6667 23.6248 18.6667H23.0415C22.8805 18.6667 22.7498 18.7973 22.7498 18.9584V19.5417ZM20.4164 19.5417C20.4164 19.7027 20.547 19.8334 20.7081 19.8334H21.2914C21.4524 19.8334 21.5831 19.7028 21.5831 19.5417V18.9584C21.5831 18.7974 21.4525 18.6667 21.2914 18.6667H20.7081C20.5471 18.6667 20.4164 18.7973 20.4164 18.9584V19.5417ZM18.083 19.5417C18.083 19.7027 18.2137 19.8334 18.3747 19.8334H18.9581C19.119 19.8334 19.2497 19.7028 19.2497 19.5417V18.9584C19.2497 18.7974 19.1191 18.6667 18.9581 18.6667H18.3747C18.2137 18.6667 18.083 18.7973 18.083 18.9584V19.5417ZM15.7497 19.5417C15.7497 19.7027 15.8803 19.8334 16.0414 19.8334H16.6247C16.7857 19.8334 16.9164 19.7028 16.9164 19.5417V18.9584C16.9164 18.7974 16.7858 18.6667 16.6247 18.6667H16.0414C15.8804 18.6667 15.7497 18.7973 15.7497 18.9584V19.5417ZM13.4163 19.5417C13.4163 19.7027 13.5469 19.8334 13.708 19.8334H14.2913C14.4523 19.8334 14.583 19.7028 14.583 19.5417V18.9584C14.583 18.7974 14.4523 18.6667 14.2913 18.6667H13.708C13.547 18.6667 13.4163 18.7973 13.4163 18.9584V19.5417ZM11.0829 19.5417C11.0829 19.7027 11.2136 19.8334 11.3746 19.8334H11.9579C12.1189 19.8334 12.2496 19.7028 12.2496 19.5417V18.9584C12.2496 18.7974 12.119 18.6667 11.9579 18.6667H11.3746C11.2136 18.6667 11.0829 18.7973 11.0829 18.9584V19.5417ZM8.74958 19.5417C8.74958 19.7027 8.88022 19.8334 9.04128 19.8334H9.6246C9.78558 19.8334 9.91629 19.7028 9.91629 19.5417V18.9584C9.91629 18.7974 9.78565 18.6667 9.6246 18.6667H9.04128C8.88029 18.6667 8.74958 18.7973 8.74958 18.9584V19.5417ZM6.41617 19.5417C6.41617 19.7027 6.5468 19.8334 6.70786 19.8334H7.29118C7.45217 19.8334 7.58288 19.7028 7.58288 19.5417V18.9584C7.58288 18.7974 7.45224 18.6667 7.29118 18.6667H6.70786C6.54687 18.6667 6.41617 18.7973 6.41617 18.9584V19.5417ZM4.08282 19.5417C4.08282 19.7027 4.21346 19.8334 4.37451 19.8334H4.95783C5.11882 19.8334 5.24953 19.7028 5.24953 19.5417V18.9584C5.24953 18.7974 5.11889 18.6667 4.95783 18.6667H4.37451C4.21353 18.6667 4.08282 18.7973 4.08282 18.9584V19.5417Z" fill="#078BBE"/>
<path d="M4.95897 13.0193L5.34104 12.0381C5.42793 11.8141 5.64381 11.6665 5.88417 11.6665H8.16617V10.2082C8.16617 10.0472 8.29681 9.9165 8.45787 9.9165H9.04119C9.20218 9.9165 9.33288 10.0471 9.33288 10.2082V11.6665H12.2496V10.2082C12.2496 10.0472 12.3803 9.9165 12.5413 9.9165H13.1246C13.2856 9.9165 13.4163 10.0471 13.4163 10.2082V11.6665H16.3331V10.2082C16.3331 10.0472 16.4637 9.9165 16.6248 9.9165H17.2081C17.3691 9.9165 17.4998 10.0471 17.4998 10.2082V11.6665H19.9195C20.1598 11.6665 20.3756 11.8141 20.4631 12.0381L20.8452 13.0188C20.9193 13.2101 20.7781 13.4166 20.5733 13.4166H5.23084C5.02549 13.4166 4.88432 13.2101 4.95897 13.0193Z" fill="#078BBE"/>
<path d="M2.47164 15.9442L2.817 14.9711C2.89924 14.7384 3.11977 14.5832 3.36648 14.5832H26.0224C26.2691 14.5832 26.4896 14.7384 26.5718 14.9711L26.9172 15.9436C26.9849 16.1337 26.8443 16.3332 26.643 16.3332H2.74638C2.54513 16.3333 2.40397 16.1338 2.47164 15.9442Z" fill="#078BBE"/>
</svg>
