<svg width="18" height="18" viewBox="0 0 18 18" fill="none" xmlns="http://www.w3.org/2000/svg">
<path d="M8.25 15.75H3C2.175 15.75 1.5 15.075 1.5 14.25V3.75C1.5 2.925 2.175 2.25 3 2.25H13.5C14.325 2.25 15 2.925 15 3.75V6.75C15 7.2 14.7 7.5 14.25 7.5C13.8 7.5 13.5 7.2 13.5 6.75V3.75H3V14.25H8.25C8.7 14.25 9 14.55 9 15C9 15.45 8.7 15.75 8.25 15.75Z" fill="#078BBE"/>
<path d="M15.75 12.75H11.25C10.8 12.75 10.5 12.45 10.5 12C10.5 11.55 10.8 11.25 11.25 11.25H15.75C16.2 11.25 16.5 11.55 16.5 12C16.5 12.45 16.2 12.75 15.75 12.75Z" fill="#078BBE"/>
<path d="M8.25 12H2.25C1.8 12 1.5 11.7 1.5 11.25C1.5 10.8 1.8 10.5 2.25 10.5H8.25C8.7 10.5 9 10.8 9 11.25C9 11.7 8.7 12 8.25 12Z" fill="#078BBE"/>
<path d="M13.5 15C13.05 15 12.75 14.7 12.75 14.25V9.75C12.75 9.3 13.05 9 13.5 9C13.95 9 14.25 9.3 14.25 9.75V14.25C14.25 14.7 13.95 15 13.5 15Z" fill="#078BBE"/>
<path d="M8.25 15.75C7.8 15.75 7.5 15.45 7.5 15V3C7.5 2.55 7.8 2.25 8.25 2.25C8.7 2.25 9 2.55 9 3V15C9 15.45 8.7 15.75 8.25 15.75Z" fill="#078BBE"/>
<path d="M14.25 7.5H2.25C1.8 7.5 1.5 7.2 1.5 6.75C1.5 6.3 1.8 6 2.25 6H14.25C14.7 6 15 6.3 15 6.75C15 7.2 14.7 7.5 14.25 7.5Z" fill="#078BBE"/>
</svg>
