<svg width="21" height="21" viewBox="0 0 21 21" fill="none" xmlns="http://www.w3.org/2000/svg">
<g clip-path="url(#clip0_6_947)">
<path d="M20.2837 0.691652C19.3234 -0.268444 17.7217 -0.223567 16.7058 0.79216L13.2283 4.50981L2.19484 1.20701L0.332343 3.06951C0.128122 3.27373 0.128329 3.60451 0.332343 3.80853L9.27846 8.73226L5.76482 12.5443C5.44934 12.8598 5.20593 13.2099 5.03563 13.5655L1.30154 12.599L0.140117 13.7605C-0.0137467 13.9144 -0.0137467 14.164 0.140117 14.3179L4.24966 16.4026L4.62191 16.7745L6.70682 20.8843C6.86069 21.0384 7.11051 21.0386 7.26437 20.8847L8.42569 19.7234L7.44233 15.9236C7.78656 15.754 8.1252 15.5165 8.43117 15.2107L12.2574 11.6831L17.216 20.692C17.4202 20.8962 17.7507 20.8962 17.955 20.6922L19.8173 18.8297L16.4927 7.7215L20.1832 4.26939C21.1986 3.25346 21.2436 1.65154 20.2837 0.691652Z" fill="#078BBE"/>
</g>
<defs>
<clipPath id="clip0_6_947">
<rect width="21" height="21" fill="white"/>
</clipPath>
</defs>
</svg>
