<svg width="18" height="18" viewBox="0 0 18 18" fill="none" xmlns="http://www.w3.org/2000/svg">
<path fill-rule="evenodd" clip-rule="evenodd" d="M17.1454 9.42188C17.1449 9.43263 17.1443 9.44338 17.1437 9.45411C17.1459 9.41994 17.1478 9.38577 17.1495 9.3516C17.1613 9.11734 17.1615 8.88297 17.1504 8.64847L17.1502 8.64454V8.64063V8.63669L17.15 8.63276L17.1498 8.62885L17.1496 8.62492L17.1494 8.62098L17.1492 8.61708L17.149 8.61314L17.1488 8.6092L17.1486 8.6053L17.1484 8.6014L17.1482 8.59746L17.148 8.59356L17.1477 8.58966L17.1475 8.58572L17.1473 8.58182V8.5783H16.8229C16.711 8.5783 16.6037 8.62275 16.5245 8.70187C16.4454 8.78098 16.401 8.88829 16.401 9.00018C16.401 9.11206 16.4454 9.21937 16.5245 9.29849C16.6037 9.3776 16.711 9.42205 16.8229 9.42205L17.1454 9.42188ZM9.41992 0.854473C9.1394 0.83976 8.85831 0.83976 8.57779 0.854473V1.17773C8.57779 1.28962 8.62224 1.39693 8.70136 1.47605C8.78048 1.55516 8.88779 1.59961 8.99968 1.59961C9.11158 1.59961 9.21889 1.55516 9.29801 1.47605C9.37713 1.39693 9.42157 1.28962 9.42157 1.17773V0.854613H9.41996L9.41992 0.854473ZM0.854858 8.57812C0.853874 8.60156 0.85297 8.625 0.85215 8.64844C0.844063 8.88281 0.844639 9.11719 0.853872 9.35156C0.854788 9.375 0.855795 9.39844 0.856895 9.42188H1.17767C1.28957 9.42188 1.39688 9.37743 1.476 9.29831C1.55512 9.21919 1.59957 9.11189 1.59957 9C1.59957 8.88811 1.55512 8.78081 1.476 8.70169C1.39688 8.62257 1.28957 8.57812 1.17767 8.57812H0.854858ZM8.57779 17.1453C8.60123 17.1474 8.62467 17.1493 8.64811 17.151C8.88216 17.1686 9.1172 17.1686 9.35126 17.151C9.3747 17.1493 9.39814 17.1474 9.42157 17.1452V16.8223C9.42157 16.7104 9.37713 16.6031 9.29801 16.524C9.21889 16.4448 9.11158 16.4004 8.99968 16.4004C8.88779 16.4004 8.78048 16.4448 8.70136 16.524C8.62224 16.6031 8.57779 16.7104 8.57779 16.8223V17.1454V17.1453ZM8.57779 9.54492V3.91992C8.57779 3.80803 8.62224 3.70073 8.70136 3.62161C8.78048 3.54249 8.88779 3.49805 8.99968 3.49805C9.11158 3.49805 9.21889 3.54249 9.29801 3.62161C9.37713 3.70073 9.42157 3.80803 9.42157 3.91992V9.32368L12.4592 11.4268C12.5332 11.4779 12.589 11.5514 12.6183 11.6365C12.6476 11.7216 12.6489 11.8139 12.622 11.8998C12.5951 11.9857 12.5415 12.0607 12.4689 12.114C12.3964 12.1672 12.3087 12.1958 12.2187 12.1957C12.1329 12.1959 12.0493 12.1696 11.979 12.1204L8.75956 9.89191C8.70347 9.85307 8.65763 9.80122 8.62596 9.74078C8.5943 9.68035 8.57776 9.61315 8.57776 9.54492H8.57779ZM8.99975 0C13.9626 0 18 4.03724 18 9C18 13.9628 13.9626 18 8.99965 18C4.03666 18 0 13.9626 0 9C0 4.03741 4.03687 0 8.99975 0Z" fill="white"/>
</svg>
