<svg width="24" height="24" viewBox="0 0 24 24" fill="none" xmlns="http://www.w3.org/2000/svg">
<path d="M1.8456 6.03602C1.86573 5.99942 1.88817 5.96415 1.9128 5.93042L8.1192 11.052L1.9656 18.1512C1.78074 17.9056 1.68052 17.6066 1.68 17.2992V6.70082C1.67985 6.46899 1.73672 6.24069 1.8456 6.03602Z" fill="white"/>
<path d="M22.08 5.93042C22.1046 5.96415 22.1271 5.99942 22.1472 6.03602C22.2586 6.24004 22.3179 6.46838 22.32 6.70082V17.2992C22.3195 17.6066 22.2193 17.9056 22.0344 18.1512L15.8808 11.052L22.08 5.93042Z" fill="white"/>
<path d="M12 12.7992C11.5888 12.7982 11.1908 12.6539 10.8744 12.3912L2.45042 5.43123C2.6521 5.32979 2.87508 5.27795 3.10082 5.28003H20.8992C21.1258 5.28092 21.3488 5.33606 21.5496 5.44083L13.1256 12.4008C12.8077 12.6597 12.41 12.8005 12 12.7992Z" fill="white"/>
<path d="M10.416 12.96C10.8613 13.3292 11.4216 13.5313 12 13.5313C12.5784 13.5313 13.1387 13.3292 13.584 12.96L15.3264 11.52L21.4704 18.6C21.2904 18.6793 21.0959 18.7201 20.8992 18.72H3.1008C2.90413 18.7201 2.7096 18.6793 2.5296 18.6L8.6736 11.52L10.416 12.96Z" fill="white"/>
</svg>
