<svg width="22" height="22" viewBox="0 0 22 22" fill="none" xmlns="http://www.w3.org/2000/svg">
<path d="M15.4 17.82H6.60001C5.14427 17.82 3.96001 16.6358 3.96001 15.18V11H5.72001V15.18C5.72001 15.6653 6.11469 16.06 6.60001 16.06H15.4C15.8853 16.06 16.28 15.6653 16.28 15.18V11H18.04V15.18C18.04 16.6358 16.8557 17.82 15.4 17.82ZM13.4576 9.27786L11.88 10.8555V4.40002H10.12V10.8555L8.54239 9.27786L7.29785 10.5222L10.3778 13.6022C10.5497 13.774 10.7747 13.86 11 13.86C11.2253 13.86 11.4503 13.774 11.6224 13.6022L14.7024 10.5222L13.4576 9.27786Z" fill="white"/>
</svg>
