<svg width="24" height="24" viewBox="0 0 24 24" fill="none" xmlns="http://www.w3.org/2000/svg">
<path d="M19.5 1.5H4.5C4.106 1.49989 3.71585 1.57741 3.35182 1.72813C2.98779 1.87886 2.65703 2.09983 2.37843 2.37843C2.09983 2.65703 1.87886 2.98779 1.72813 3.35182C1.57741 3.71585 1.49989 4.106 1.5 4.5V19.5C1.49989 19.894 1.57742 20.2842 1.72814 20.6482C1.87887 21.0122 2.09984 21.343 2.37844 21.6216C2.65704 21.9002 2.9878 22.1211 3.35182 22.2719C3.71585 22.4226 4.106 22.5001 4.5 22.5H19.5C19.894 22.5001 20.2842 22.4226 20.6482 22.2719C21.0122 22.1211 21.343 21.9002 21.6216 21.6216C21.9002 21.343 22.1211 21.0122 22.2719 20.6482C22.4226 20.2842 22.5001 19.894 22.5 19.5V4.5C22.5001 4.106 22.4226 3.71585 22.2719 3.35182C22.1211 2.98779 21.9002 2.65703 21.6216 2.37843C21.343 2.09983 21.0122 1.87886 20.6482 1.72813C20.2842 1.57741 19.894 1.49989 19.5 1.5ZM16.7175 15.66C16.787 15.7294 16.8422 15.8118 16.8799 15.9025C16.9175 15.9933 16.9369 16.0905 16.9369 16.1887C16.9369 16.287 16.9175 16.3842 16.8799 16.475C16.8422 16.5657 16.787 16.6481 16.7175 16.7175C16.5768 16.8568 16.3868 16.935 16.1887 16.935C15.9907 16.935 15.8007 16.8568 15.66 16.7175L12 13.0575L8.34 16.7175C8.19929 16.8568 8.00927 16.935 7.81125 16.935C7.61323 16.935 7.42321 16.8568 7.2825 16.7175C7.21296 16.6481 7.15778 16.5657 7.12013 16.475C7.08249 16.3842 7.06311 16.287 7.06311 16.1887C7.06311 16.0905 7.08249 15.9933 7.12013 15.9025C7.15778 15.8118 7.21296 15.7294 7.2825 15.66L10.9425 12L7.2825 8.34C7.21306 8.27056 7.15798 8.18813 7.1204 8.09741C7.08283 8.00668 7.06348 7.90945 7.06348 7.81125C7.06348 7.71305 7.08283 7.61582 7.1204 7.52509C7.15798 7.43437 7.21306 7.35194 7.2825 7.2825C7.35194 7.21306 7.43437 7.15798 7.52509 7.1204C7.61582 7.08283 7.71305 7.06348 7.81125 7.06348C7.90945 7.06348 8.00668 7.08283 8.09741 7.1204C8.18813 7.15798 8.27056 7.21306 8.34 7.2825L12 10.9425L15.66 7.2825C15.8002 7.14227 15.9904 7.06348 16.1887 7.06348C16.3871 7.06348 16.5773 7.14227 16.7175 7.2825C16.8577 7.42273 16.9365 7.61293 16.9365 7.81125C16.9365 8.00957 16.8577 8.19977 16.7175 8.34L13.0575 12L16.7175 15.66Z" fill="#17365A"/>
</svg>
