<svg width="32" height="32" viewBox="0 0 32 32" fill="none" xmlns="http://www.w3.org/2000/svg">
<g clip-path="url(#clip0_572_15)">
<path d="M32 16C32 24.8367 24.8367 32 16 32C7.16333 32 0 24.8367 0 16C0 7.16333 7.16333 0 16 0C24.8367 0 32 7.16333 32 16Z" fill="url(#paint0_linear_572_15)"/>
<path d="M25.6621 17.5967C25.21 17.5967 24.8433 17.9634 24.8433 18.4155V19.9304H23.3694C22.9172 19.9304 22.5505 20.2969 22.5505 20.749C22.5505 21.2014 22.9172 21.5679 23.3694 21.5679H25.6621C26.1143 21.5679 26.481 21.2014 26.481 20.749V18.4155C26.481 17.9634 26.1143 17.5967 25.6621 17.5967Z" fill="white"/>
<path d="M15.1812 14.4033C15.6335 14.4033 16 14.0366 16 13.5845V11.7422H16.8188C17.271 11.7422 17.6377 11.3755 17.6377 10.9233V6.33789C17.6377 5.87573 17.2549 5.50317 16.7891 5.51953C16.3452 5.5354 16 5.91357 16 6.35742V6.99292H15.1812C14.729 6.99292 14.3623 7.35962 14.3623 7.81177C14.3623 8.26392 14.729 8.63062 15.1812 8.63062H16V10.1045H15.1812C14.729 10.1045 14.3623 10.4709 14.3623 10.9233V13.5845C14.3623 14.0366 14.729 14.4033 15.1812 14.4033Z" fill="white"/>
<path d="M6.33789 14.3215C5.88574 14.3215 5.51904 14.688 5.51904 15.1401V16.7778C5.51904 17.2302 5.88574 17.5967 6.33789 17.5967C6.79004 17.5967 7.15674 17.23 7.15674 16.7778V15.959H8.01636C8.46851 15.959 8.83521 15.5925 8.83521 15.1401C8.83521 14.688 8.46851 14.3215 8.01636 14.3215H6.33789Z" fill="white"/>
<path d="M18.4565 15.959H20.6675V18.396C20.6675 18.8398 21.0127 19.218 21.4563 19.2339C21.9224 19.2505 22.3052 18.8777 22.3052 18.4155V17.5967H23.1648C23.6169 17.5967 23.9836 17.23 23.9836 16.7778C23.9836 16.3257 23.6169 15.959 23.1648 15.959H22.3049V15.1401C22.3049 14.688 21.9385 14.3215 21.4861 14.3215H18.4565C18.0042 14.3215 17.6377 14.688 17.6377 15.1401C17.6377 15.5925 18.0042 15.959 18.4565 15.959Z" fill="white"/>
<path d="M26.481 15.1401C26.481 15.5925 26.1145 15.959 25.6621 15.959C25.21 15.959 24.8433 15.5925 24.8433 15.1401C24.8433 14.688 25.21 14.3215 25.6621 14.3215C26.1145 14.3215 26.481 14.688 26.481 15.1401Z" fill="white"/>
<path d="M18.4565 17.5967C18.0044 17.5967 17.6377 17.9634 17.6377 18.4155V19.9304H17.2283C16.7761 19.9304 16.4094 20.2969 16.4094 20.749C16.4094 21.2014 16.7761 21.5679 17.2283 21.5679H18.4565C18.9087 21.5679 19.2754 21.2014 19.2754 20.749V18.4155C19.2754 17.9634 18.9087 17.5967 18.4565 17.5967Z" fill="white"/>
<path d="M18.4565 24.8433H17.6377V24.0244C17.6377 23.5723 17.271 23.2056 16.8188 23.2056H16V22.387C16 21.9346 15.6335 21.5681 15.1812 21.5681C14.729 21.5681 14.3623 21.9346 14.3623 22.387V24.0247C14.3623 24.4768 14.729 24.8433 15.1812 24.8433H16V25.6621C16 26.1145 16.3667 26.481 16.8188 26.481H18.4565C18.9087 26.481 19.2754 26.1143 19.2754 25.6621C19.2754 25.21 18.9087 24.8433 18.4565 24.8433Z" fill="white"/>
<path d="M21.7319 23.2056C21.7319 22.7534 21.3652 22.387 20.9128 22.387H20.5034C20.0513 22.387 19.6846 22.7534 19.6846 23.2056C19.6846 23.658 20.0513 24.0244 20.5034 24.0244H20.9128C21.3652 24.0244 21.7319 23.658 21.7319 23.2056Z" fill="white"/>
<path d="M25.6621 24.8433H25.0071V24.0244C25.0071 23.5723 24.6404 23.2056 24.1882 23.2056C23.7361 23.2056 23.3694 23.5723 23.3694 24.0244V24.8433H21.7319C21.2795 24.8433 20.9128 25.21 20.9128 25.6621C20.9128 26.1143 21.2795 26.481 21.7319 26.481H25.6621C26.1145 26.481 26.481 26.1143 26.481 25.6621C26.481 25.21 26.1145 24.8433 25.6621 24.8433Z" fill="white"/>
<path d="M15.1812 19.1116C15.6335 19.1116 16 18.7449 16 18.2927V16.7778C16 16.3257 15.6335 15.959 15.1812 15.959H12.2334V15.1599C12.2334 14.7158 11.8882 14.3376 11.4443 14.322C10.9785 14.3054 10.5957 14.6782 10.5957 15.1401V15.959H10.1863C9.73389 15.959 9.36743 16.3257 9.36743 16.7778C9.36743 17.2302 9.73389 17.5967 10.1863 17.5967H14.3623V18.2927C14.3623 18.7449 14.729 19.1116 15.1812 19.1116Z" fill="white"/>
<path d="M8.83789 13.0071H9.56958C11.4651 13.0071 13.0071 11.4651 13.0071 9.56958V8.83789C13.0071 6.94238 11.4651 5.40039 9.56958 5.40039H8.83789C6.94238 5.40039 5.40039 6.94238 5.40039 8.83789V9.56958C5.40039 11.4651 6.94238 13.0071 8.83789 13.0071ZM7.27539 8.83789C7.27539 7.97632 7.97632 7.27539 8.83789 7.27539H9.56958C10.4312 7.27539 11.1321 7.97632 11.1321 8.83789V9.56958C11.1321 10.4312 10.4312 11.1321 9.56958 11.1321H8.83789C7.97632 11.1321 7.27539 10.4312 7.27539 9.56958V8.83789Z" fill="white"/>
<path d="M10.0225 9.20386C10.0225 9.65601 9.65601 10.0225 9.20386 10.0225C8.75146 10.0225 8.38501 9.65601 8.38501 9.20386C8.38501 8.75146 8.75146 8.38501 9.20386 8.38501C9.65601 8.38501 10.0225 8.75146 10.0225 9.20386Z" fill="white"/>
<path d="M23.1621 5.40039H22.4304C20.5349 5.40039 18.9929 6.94238 18.9929 8.83789V9.56958C18.9929 11.4651 20.5349 13.0071 22.4304 13.0071H23.1621C25.0576 13.0071 26.5996 11.4651 26.5996 9.56958V8.83789C26.5996 6.94238 25.0576 5.40039 23.1621 5.40039ZM24.7246 9.56958C24.7246 10.4312 24.0237 11.1321 23.1621 11.1321H22.4304C21.5688 11.1321 20.8679 10.4312 20.8679 9.56958V8.83789C20.8679 7.97632 21.5688 7.27539 22.4304 7.27539H23.1621C24.0237 7.27539 24.7246 7.97632 24.7246 8.83789V9.56958Z" fill="white"/>
<path d="M23.615 9.20386C23.615 9.65601 23.2485 10.0225 22.7961 10.0225C22.344 10.0225 21.9775 9.65601 21.9775 9.20386C21.9775 8.75146 22.344 8.38501 22.7961 8.38501C23.2485 8.38501 23.615 8.75146 23.615 9.20386Z" fill="white"/>
<path d="M9.56958 18.9929H8.83789C6.94238 18.9929 5.40039 20.5349 5.40039 22.4304V23.1621C5.40039 25.0576 6.94238 26.5996 8.83789 26.5996H9.56958C11.4651 26.5996 13.0071 25.0576 13.0071 23.1621V22.4304C13.0071 20.5349 11.4651 18.9929 9.56958 18.9929ZM11.1321 23.1621C11.1321 24.0237 10.4312 24.7246 9.56958 24.7246H8.83789C7.97632 24.7246 7.27539 24.0237 7.27539 23.1621V22.4304C7.27539 21.5688 7.97632 20.8679 8.83789 20.8679H9.56958C10.4312 20.8679 11.1321 21.5688 11.1321 22.4304V23.1621Z" fill="white"/>
<path d="M10.0225 22.7961C10.0225 23.2485 9.65601 23.615 9.20386 23.615C8.75146 23.615 8.38501 23.2485 8.38501 22.7961C8.38501 22.344 8.75146 21.9775 9.20386 21.9775C9.65601 21.9775 10.0225 22.344 10.0225 22.7961Z" fill="white"/>
</g>
<defs>
<linearGradient id="paint0_linear_572_15" x1="0" y1="16" x2="32" y2="16" gradientUnits="userSpaceOnUse">
<stop stop-color="#00F1FF"/>
<stop offset="0.231" stop-color="#00D8FF"/>
<stop offset="0.5138" stop-color="#00C0FF"/>
<stop offset="0.7773" stop-color="#00B2FF"/>
<stop offset="1" stop-color="#00ADFF"/>
</linearGradient>
<clipPath id="clip0_572_15">
<rect width="32" height="32" fill="white"/>
</clipPath>
</defs>
</svg>
