<svg width="15" height="15" viewBox="0 0 15 15" fill="none" xmlns="http://www.w3.org/2000/svg">
<path d="M14.1666 13.3333H0.833344C0.373093 13.3333 0 12.9602 0 12.4999C0 12.0397 0.373093 11.6666 0.833344 11.6666H14.1667C14.6269 11.6666 15 12.0397 15 12.4999C15 12.9602 14.6269 13.3333 14.1666 13.3333ZM14.1666 8.33331H0.833344C0.373093 8.33331 0 7.96019 0 7.49997C0 7.03972 0.373093 6.66663 0.833344 6.66663H14.1667C14.6269 6.66663 15 7.03972 15 7.49997C15 7.96019 14.6269 8.33331 14.1666 8.33331ZM14.1666 3.33331H0.833344C0.373093 3.33331 0 2.96022 0 2.49997C0 2.03972 0.373093 1.66663 0.833344 1.66663H14.1667C14.6269 1.66663 15 2.03972 15 2.49997C15 2.96022 14.6269 3.33331 14.1666 3.33331Z" fill="white"/>
</svg>
