<svg width="32" height="32" viewBox="0 0 32 32" fill="none" xmlns="http://www.w3.org/2000/svg">
<g clip-path="url(#clip0_569_52)">
<path fill-rule="evenodd" clip-rule="evenodd" d="M16 0C24.8369 0 32 7.16313 32 16C32 24.8369 24.8369 32 16 32C7.16313 32 0 24.8369 0 16C0 7.16313 7.16313 0 16 0Z" fill="url(#paint0_linear_569_52)"/>
<path d="M23.2012 10.2194L20.923 21.7037C20.923 21.7037 20.6043 22.5 19.7287 22.1181L14.4724 18.0881L12.5605 17.1644L9.34305 16.0812C9.34305 16.0812 8.8493 15.9056 8.8018 15.5237C8.75367 15.1412 9.3593 14.9344 9.3593 14.9344L22.1499 9.91687C22.1499 9.91687 23.2012 9.45499 23.2012 10.2194Z" fill="#FEFEFE"/>
<path d="M16.5248 19.91L14.2867 21.9506C14.2867 21.9506 14.1123 22.0831 13.9205 22C13.6386 21.9594 12.8117 19.0119 12.2986 17.2531L12.728 16.98L16.5248 19.91Z" fill="#B5D2E5"/>
<path d="M13.9205 22C13.6155 21.9712 12.4555 17.7669 12.2986 17.2531L20.613 11.9725C21.0455 11.71 21.2767 11.9169 20.9042 12.2644C20.6473 12.5044 14.373 18.1444 14.373 18.1444L13.9205 22Z" fill="#D3E7F2"/>
</g>
<defs>
<linearGradient id="paint0_linear_569_52" x1="4.23938" y1="5.15125" x2="29.6369" y2="24.3737" gradientUnits="userSpaceOnUse">
<stop stop-color="#28AAE0"/>
<stop offset="1" stop-color="#23B7EC"/>
</linearGradient>
<clipPath id="clip0_569_52">
<rect width="32" height="32" fill="white"/>
</clipPath>
</defs>
</svg>
