<svg width="14" height="14" viewBox="0 0 14 14" fill="none" xmlns="http://www.w3.org/2000/svg">
<g clip-path="url(#clip0_6_855)">
<path d="M6.69433 5.16427C6.42075 4.99627 6.335 4.63752 6.503 4.36394L8.25533 1.44494C8.36675 1.26294 8.55692 1.16669 8.75058 1.16669C9.20325 1.16669 9.485 1.66544 9.247 2.05277L7.49408 4.97235C7.32258 5.25177 6.96325 5.32877 6.69433 5.16427ZM8.69283 5.25002L8.48808 5.58194C8.16842 6.1046 7.61133 6.41669 6.99883 6.41669C6.29767 6.41669 5.62275 5.99669 5.3585 5.25002H0V6.41669H0.375083C0.687167 6.41669 0.970667 6.59402 1.10775 6.87402L3.5 12.8334H10.5L12.8928 6.87519C13.0293 6.5946 13.314 6.41669 13.6255 6.41669H14V5.25002H8.69283ZM5.25 10.5C5.25 10.822 4.98925 11.0834 4.66667 11.0834C4.34408 11.0834 4.08333 10.822 4.08333 10.5V8.16669C4.08333 7.84469 4.34408 7.58335 4.66667 7.58335C4.98925 7.58335 5.25 7.84469 5.25 8.16669V10.5ZM7.58333 10.5C7.58333 10.822 7.32258 11.0834 7 11.0834C6.67742 11.0834 6.41667 10.822 6.41667 10.5V8.16669C6.41667 7.84469 6.67742 7.58335 7 7.58335C7.32258 7.58335 7.58333 7.84469 7.58333 8.16669V10.5ZM9.91667 10.5C9.91667 10.822 9.65592 11.0834 9.33333 11.0834C9.01075 11.0834 8.75 10.822 8.75 10.5V8.16669C8.75 7.84469 9.01075 7.58335 9.33333 7.58335C9.65592 7.58335 9.91667 7.84469 9.91667 8.16669V10.5Z" fill="white"/>
</g>
<defs>
<clipPath id="clip0_6_855">
<rect width="14" height="14" fill="white"/>
</clipPath>
</defs>
</svg>
