<svg width="14" height="14" viewBox="0 0 14 14" fill="none" xmlns="http://www.w3.org/2000/svg">
<g clip-path="url(#clip0_6_857)">
<path d="M2.65883 4.08335L5.40108 1.34052C5.51717 1.22502 5.66942 1.16669 5.82167 1.16669C6.17925 1.16669 6.41667 1.46127 6.41667 1.76694C6.41667 1.91277 6.363 2.06094 6.24225 2.18169L4.34058 4.08335H2.65883ZM9.65942 4.08335H11.3412L8.59892 1.34052C8.48283 1.22502 8.33058 1.16669 8.17833 1.16669C7.82075 1.16669 7.58333 1.46127 7.58333 1.76694C7.58333 1.91277 7.637 2.06094 7.75775 2.18169L9.65942 4.08335ZM0 5.25002V6.41669H0.375083C0.686583 6.41669 0.970667 6.59402 1.10775 6.87402L3.5 12.8334H10.5L12.8928 6.87519C13.0287 6.5946 13.314 6.41669 13.6255 6.41669H14V5.25002H0Z" fill="white"/>
</g>
<defs>
<clipPath id="clip0_6_857">
<rect width="14" height="14" fill="white"/>
</clipPath>
</defs>
</svg>
